<?xml version="1.0" encoding="UTF-8"?>
<svg id="Calque_1" data-name="Calque 1" xmlns="http://www.w3.org/2000/svg" viewBox="0 0 759 259">
  <defs>
    <style>
      .cls-1 {
        fill: none;
        stroke: #000;
        stroke-miterlimit: 10;
        stroke-width: 10px;
      }
    </style>
  </defs>
  <g>
    <path d="M47.9,161.85V48.54h43.83c19.04,0,33.29,5.64,42.75,16.93s14.19,24.35,14.19,39.18c0,16.93-5.08,30.7-15.23,41.3-10.16,10.6-23.34,15.9-39.55,15.9H47.9Zm34.78-26.06h9.05c5.75,0,10.61-2.79,14.57-8.38,3.96-5.59,5.94-13.2,5.94-22.83,0-8.25-1.76-15.36-5.27-21.33-3.51-5.98-8.59-8.96-15.23-8.96h-9.05v61.51Z"/>
    <path d="M248.61,134.79v27.06h-85.25V48.54h85.25v26.15h-51.13v16.44h41.34v25.15h-41.34v18.51h51.13Z"/>
    <path d="M262.39,161.85V48.54h43.83c19.04,0,33.29,5.64,42.75,16.93s14.19,24.35,14.19,39.18c0,16.93-5.08,30.7-15.23,41.3-10.16,10.6-23.34,15.9-39.55,15.9h-45.99Zm34.78-26.06h9.05c5.75,0,10.61-2.79,14.57-8.38,3.96-5.59,5.94-13.2,5.94-22.83,0-8.25-1.76-15.36-5.27-21.33-3.51-5.98-8.59-8.96-15.23-8.96h-9.05v61.51Z"/>
    <path d="M436.6,161.85l-6.4-22.33h-30.35l-6.8,22.33h-28.24l34.98-113.31h36.77l35.54,113.31h-35.49Zm-30.84-47.07h18.33l-9.17-32.87-9.17,32.87Z"/>
    <path d="M561.97,134.04v27.81h-79.44V48.54h34.78v85.5h44.66Z"/>
  </g>
  <g>
    <path d="M303.3,210.14v-26.66h10.31c4.48,0,7.83,1.33,10.06,3.98s3.34,5.73,3.34,9.22c0,3.98-1.19,7.22-3.58,9.72-2.39,2.49-5.49,3.74-9.31,3.74h-10.82Zm8.18-6.13h2.13c1.35,0,2.5-.66,3.43-1.97,.93-1.32,1.4-3.11,1.4-5.37,0-1.94-.41-3.61-1.24-5.02-.83-1.41-2.02-2.11-3.58-2.11h-2.13v14.47Z"/>
    <path d="M362.53,203.77v6.37h-20.06v-26.66h20.06v6.15h-12.03v3.87h9.73v5.92h-9.73v4.36h12.03Z"/>
    <path d="M375.02,202.43l7.6-1.37c.64,2.15,2.28,3.22,4.92,3.22,2.06,0,3.09-.55,3.09-1.64,0-.57-.24-1.02-.71-1.34-.48-.32-1.33-.6-2.55-.85-4.67-.9-7.68-2.07-9-3.51-1.33-1.45-1.99-3.15-1.99-5.1,0-2.51,.95-4.6,2.86-6.27,1.91-1.67,4.65-2.5,8.23-2.5,5.43,0,9.02,2.18,10.76,6.54l-6.78,2.05c-.7-1.79-2.13-2.68-4.28-2.68-1.79,0-2.68,.55-2.68,1.66,0,.49,.2,.88,.61,1.15,.4,.27,1.18,.53,2.34,.78,3.19,.68,5.46,1.27,6.8,1.79,1.34,.52,2.46,1.41,3.36,2.66,.9,1.26,1.35,2.74,1.35,4.45,0,2.7-1.09,4.88-3.28,6.56s-5.06,2.51-8.61,2.51c-6.5,0-10.51-2.71-12.03-8.12Z"/>
    <path d="M450.73,199.96l7.48,.45c-.35,3.27-1.56,5.77-3.62,7.52-2.06,1.74-4.6,2.62-7.61,2.62-3.62,0-6.54-1.2-8.77-3.59-2.23-2.4-3.34-5.7-3.34-9.92s1.05-7.55,3.16-10.12c2.11-2.57,5.05-3.85,8.83-3.85,3.53,0,6.24,.98,8.13,2.93s2.96,4.54,3.21,7.77l-7.64,.41c0-1.79-.34-3.07-1.03-3.87-.68-.79-1.49-1.19-2.41-1.19-2.58,0-3.87,2.59-3.87,7.77,0,2.9,.33,4.88,1.01,5.92,.67,1.04,1.61,1.56,2.82,1.56,2.16,0,3.37-1.47,3.63-4.41Z"/>
    <path d="M484.73,210.55c-3.75,0-6.81-1.24-9.17-3.73-2.36-2.49-3.54-5.81-3.54-9.98s1.13-7.28,3.39-9.87c2.26-2.6,5.39-3.9,9.4-3.9,3.71,0,6.73,1.22,9.07,3.67,2.34,2.45,3.51,5.71,3.51,9.8s-1.18,7.62-3.54,10.18c-2.36,2.55-5.4,3.83-9.12,3.83Zm-.04-6.05c1.38,0,2.37-.6,2.98-1.81,.61-1.21,.91-3.41,.91-6.61,0-4.64-1.24-6.95-3.73-6.95-2.68,0-4.02,2.64-4.02,7.93,0,4.96,1.29,7.44,3.87,7.44Z"/>
    <path d="M534.46,183.48v17.66c0,3.35-.99,5.75-2.98,7.22-1.99,1.46-4.57,2.2-7.76,2.2-3.36,0-6.06-.7-8.1-2.11-2.04-1.41-3.06-3.7-3.06-6.88v-18.09h8.32v17.13c0,1.28,.27,2.21,.81,2.79s1.4,.88,2.58,.88c.99,0,1.79-.21,2.42-.63,.63-.42,1.01-.9,1.13-1.44,.12-.54,.19-1.58,.19-3.12v-15.61h6.45Z"/>
    <path d="M569.53,203.6v6.54h-18.69v-26.66h8.18v20.12h10.51Z"/>
    <path d="M604.44,203.77v6.37h-20.06v-26.66h20.06v6.15h-12.03v3.87h9.73v5.92h-9.73v4.36h12.03Z"/>
    <path d="M641.3,183.48v17.66c0,3.35-.99,5.75-2.98,7.22-1.99,1.46-4.57,2.2-7.76,2.2-3.36,0-6.06-.7-8.1-2.11-2.04-1.41-3.06-3.7-3.06-6.88v-18.09h8.32v17.13c0,1.28,.27,2.21,.81,2.79s1.4,.88,2.58,.88c.99,0,1.79-.21,2.42-.63,.63-.42,1.01-.9,1.13-1.44,.12-.54,.19-1.58,.19-3.12v-15.61h6.45Z"/>
    <path d="M681.41,210.14h-9.07l-3.89-10.2h-2.58v10.2h-8.18v-26.66h13.93c3.07,0,5.46,.72,7.16,2.16,1.7,1.44,2.55,3.34,2.55,5.69,0,1.54-.31,2.89-.94,4.07-.62,1.18-1.89,2.22-3.79,3.12l4.82,11.62Zm-15.55-15.9h3.5c1.03,0,1.86-.21,2.48-.64s.94-1.06,.94-1.89c0-1.71-1.05-2.56-3.14-2.56h-3.77v5.1Z"/>
    <path d="M694.52,202.43l7.6-1.37c.64,2.15,2.28,3.22,4.92,3.22,2.06,0,3.09-.55,3.09-1.64,0-.57-.24-1.02-.71-1.34-.48-.32-1.33-.6-2.55-.85-4.68-.9-7.68-2.07-9.01-3.51-1.33-1.45-1.99-3.15-1.99-5.1,0-2.51,.95-4.6,2.86-6.27,1.91-1.67,4.65-2.5,8.23-2.5,5.43,0,9.02,2.18,10.76,6.54l-6.78,2.05c-.7-1.79-2.13-2.68-4.28-2.68-1.79,0-2.68,.55-2.68,1.66,0,.49,.2,.88,.61,1.15,.4,.27,1.18,.53,2.34,.78,3.19,.68,5.46,1.27,6.8,1.79,1.34,.52,2.46,1.41,3.36,2.66,.9,1.26,1.35,2.74,1.35,4.45,0,2.7-1.09,4.88-3.28,6.56s-5.06,2.51-8.61,2.51c-6.5,0-10.51-2.71-12.03-8.12Z"/>
  </g>
  <polyline class="cls-1" points="379.5 5 754 5 754 246.11"/>
  <polyline class="cls-1" points="5 13 5 254 379.5 254 383.61 254"/>
</svg>